<svg id="Component_28_1" data-name="Component 28 – 1" xmlns="http://www.w3.org/2000/svg" width="26.012" height="24.352" viewBox="0 0 26.012 24.352">
  <g id="notifications" transform="translate(-1.388 -2.148)">
    <path id="Path_47" data-name="Path 47" d="M13.846,26.5a2.469,2.469,0,0,0,2.462-2.462H11.385A2.462,2.462,0,0,0,13.846,26.5Zm7.385-7.385V12.962c0-3.778-2.018-6.942-5.538-7.778V4.346a1.846,1.846,0,1,0-3.692,0v.837c-3.532.837-5.538,3.988-5.538,7.778v6.154L4,21.577v1.231H23.692V21.577Z" transform="translate(0)" fill="#f7f7f7"/>
  </g>
  <path id="Path_48" data-name="Path 48" d="M1.154-.908C8.633,4.426,17.049,0,17.049,0" transform="matrix(-0.259, 0.966, -0.966, -0.259, 6.077, -0.669)" fill="none"/>
  <path id="Path_49" data-name="Path 49" d="M4.115,9.03C5.857.728,17.049,0,17.049,0" transform="matrix(-0.259, 0.966, -0.966, -0.259, 27.077, -1.285)" fill="none"/>
</svg>
